#!OML:ASF I:\Actors\actors\Patient Classification 1\Patient 1\Session 1\Subject1.ASF
:FULLY-SPECIFIED
:DEGREES
282
root 0.0170892 17.5423 8.86419 9.04911 1.806 -7.5066
lowerback -1.87548 1.61157 6.15919
upperback -4.50809 2.19039 0.365646
thorax -3.40133 0.896977 -3.08909
lowerneck -17.9412 -4.66809 -0.759893
upperneck 22.1944 -8.15674 7.01195
head 10.4298 -2.97828 1.44534
rclavicle -7.33018e-016 -2.78299e-015
rhumerus -34.435 47.469 -73.556
rradius 143.381
rwrist -31.6921
rhand 68.4797 -48.1837
rfingers 7.12502
rthumb 74.1737 14.9608
lclavicle -7.33018e-016 -2.78299e-015
lhumerus -43.9877 -52.0093 80.0883
lradius 142.209
lwrist 25.5036
lhand 4.86627 -34.8708
lfingers 7.12502
lthumb 30.2424 -7.32765
rfemur -3.22959 22.208 24.686
rtibia 5.90872
rfoot -15.6533 -25.9994
rtoes 1.60495
lfemur 1.29266 -34.4358 -10.0801
ltibia -1.58194
lfoot -12.9837 41.742
ltoes -3.69094
283
root 0.0159934 17.5425 8.87249 9.03502 1.80729 -7.49691
lowerback -1.75742 1.60543 6.19835
upperback -4.66607 2.19613 0.304827
thorax -3.62975 0.886876 -3.18052
lowerneck -18.8145 -4.97694 -2.2838
upperneck 23.3224 -8.59755 8.25785
head 11.1724 -3.09602 2.06622
rclavicle 1.84062e-014 -3.18055e-015
rhumerus -34.6192 48.0614 -73.579
rradius 143.42
rwrist -31.8514
rhand 67.5335 -47.2519
rfingers 7.12502
rthumb 74.443 12.663
lclavicle 1.84062e-014 -3.18055e-015
lhumerus -44.4286 -52.0688 80.3252
lradius 142.237
lwrist 25.4278
lhand 4.82601 -35.0559
lfingers 7.12502
lthumb 30.204 -7.50581
rfemur -3.1847 22.1986 24.6936
rtibia 5.90543
rfoot -15.6569 -26.0041
rtoes 1.60867
lfemur 1.33689 -34.4684 -10.1247
ltibia -1.55512
lfoot -13.0769 41.7638
ltoes -3.66115
284
root 0.0156541 17.5434 8.87958 9.0594 1.85602 -7.51368
lowerback -1.99494 1.55033 6.12263
upperback -4.61045 2.10376 0.366028
thorax -3.45053 0.851345 -3.06612
lowerneck -19.1792 -5.09314 -2.75946
upperneck 23.6976 -8.75499 8.61189
head 11.4378 -3.14248 2.24692
rclavicle 1.13494e-014 -3.18055e-015
rhumerus -34.9775 47.9519 -73.7579
rradius 143.411
rwrist -31.8506
rhand 67.5003 -47.4461
rfingers 7.12502
rthumb 74.4515 12.3536
lclavicle 1.13494e-014 -3.18055e-015
lhumerus -44.4819 -51.9454 80.3175
lradius 142.239
lwrist 25.3819
lhand 4.66608 -35.0748
lfingers 7.12502
lthumb 30.0514 -7.49685
rfemur -3.1795 22.151 24.7159
rtibia 5.88705
rfoot -15.6689 -25.9912
rtoes 1.58897
lfemur 1.26637 -34.3681 -10.0593
ltibia -1.51267
lfoot -12.9652 41.6257
ltoes -3.84892
285
root 0.0159051 17.5443 8.88584 9.0847 1.92404 -7.52908
lowerback -2.23134 1.49034 6.05454
upperback -4.54339 2.00481 0.428267
thorax -3.26029 0.812567 -2.95552
lowerneck -19.3195 -5.13458 -2.75348
upperneck 23.9461 -8.82396 8.54681
head 11.5606 -3.16869 2.21094
rclavicle -2.17669e-014 -4.37326e-015
rhumerus -35.2881 47.8004 -73.8616
rradius 143.406
rwrist -31.8173
rhand 67.6861 -47.7164
rfingers 7.12502
rthumb 74.4031 12.727
lclavicle -2.17669e-014 -4.37326e-015
lhumerus -44.4765 -51.8509 80.2491
lradius 142.23
lwrist 25.3597
lhand 4.50157 -34.9463
lfingers 7.12502
lthumb 29.8944 -7.33998
rfemur -3.14442 22.1081 24.7397
rtibia 5.80829
rfoot -15.6658 -26.0099
rtoes 1.64481
lfemur 1.19382 -34.2829 -9.99748
ltibia -1.46711
lfoot -12.8559 41.4871
ltoes -4.02949
286
root 0.0145971 17.5442 8.89046 9.1035 1.93317 -7.55375
lowerback -2.27932 1.47709 6.04838
upperback -4.56733 1.98495 0.443817
thorax -3.26085 0.802651 -2.93502
lowerneck -19.3012 -5.14693 -2.74177
upperneck 24.1837 -8.85103 8.47807
head 11.6448 -3.18123 2.18223
rclavicle -2.83889e-015 3.18055e-015
rhumerus -35.4468 47.8029 -73.8034
rradius 143.395
rwrist -31.8285
rhand 67.6148 -47.5001
rfingers 7.12502
rthumb 74.4219 12.6966
lclavicle -2.83889e-015 3.18055e-015
lhumerus -44.5259 -51.8394 80.232
lradius 142.17
lwrist 25.3838
lhand 4.35996 -34.754
lfingers 7.12502
lthumb 29.7593 -7.12341
rfemur -3.11762 22.1303 24.7779
rtibia 5.75123
rfoot -15.6573 -26.0501
rtoes 1.7541
lfemur 1.18779 -34.2689 -9.95091
ltibia -1.4746
lfoot -12.8588 41.4625
ltoes -4.11369
287
root 0.0134948 17.5434 8.89396 9.11954 1.89429 -7.5691
lowerback -2.30082 1.5022 6.0484
upperback -4.56004 2.01675 0.451286
thorax -3.23833 0.819513 -2.92652
lowerneck -19.121 -5.14844 -2.70168
upperneck 24.1805 -8.8423 8.39698
head 11.6005 -3.18952 2.15029
rclavicle -1.12251e-014 7.55382e-015
rhumerus -35.3146 47.6597 -73.4681
rradius 143.365
rwrist -31.911
rhand 67.4128 -47.3043
rfingers 7.12502
rthumb 74.4737 12.191
lclavicle -1.12251e-014 7.55382e-015
lhumerus -44.3735 -51.8074 80.1075
lradius 142.048
lwrist 25.4292
lhand 4.29064 -34.7491
lfingers 7.12502
lthumb 29.6931 -7.10671
rfemur -3.1322 22.1183 24.7906
rtibia 5.76188
rfoot -15.6344 -26.0133
rtoes 1.74253
lfemur 1.2365 -34.3065 -9.95216
ltibia -1.51908
lfoot -12.8829 41.5473
ltoes -4.10819
288
root 0.0129779 17.5425 8.89616 9.1228 1.85122 -7.56575
lowerback -2.30346 1.53856 6.05037
upperback -4.50085 2.06239 0.442296
thorax -3.17024 0.845332 -2.93579
lowerneck -18.6578 -5.13817 -2.64663
upperneck 23.8122 -8.80052 8.37589
head 11.3623 -3.19473 2.14487
rclavicle -2.79603e-014 2.38542e-015
rhumerus -34.6339 47.6178 -72.6252
rradius 143.358
rwrist -32.0582
rhand 66.889 -47.0074
rfingers 7.12502
rthumb 74.5966 10.6476
lclavicle -2.79603e-014 2.38542e-015
lhumerus -44.0614 -51.7639 79.8052
lradius 141.941
lwrist 25.4827
lhand 4.38422 -34.9074
lfingers 7.12502
lthumb 29.7825 -7.28099
rfemur -3.14115 22.1011 24.7827
rtibia 5.77674
rfoot -15.5909 -25.9846
rtoes 1.52529
lfemur 1.30247 -34.4459 -10.0098
ltibia -1.53323
lfoot -13.0005 41.7273
ltoes -3.93
